<?xml version="1.0" encoding="utf-8"?>
<svg viewBox="568.487 42.702 70.557 67.556" xmlns="http://www.w3.org/2000/svg">
  <path d="M 4853.189 1932.094 C 4911.509 1975.941 4988.329 1990.305 5058.709 1970.504 C 5059.819 1970.191 5060.479 1969.086 5060.239 1967.984 C 5059.989 1966.891 5058.969 1966.144 5057.839 1966.312 C 4991.129 1975.531 4921.129 1956.949 4865.799 1915.336 C 4810.469 1873.726 4773.209 1811.609 4763.569 1744.957 C 4763.409 1743.832 4762.419 1743.043 4761.289 1743.109 C 4760.119 1743.215 4759.269 1744.133 4759.279 1745.277 C 4759.769 1818.391 4794.899 1888.219 4853.189 1932.094" style="fill:#231f20;fill-opacity:1;fill-rule:nonzero;stroke:none" id="path16" transform="matrix(0.133333, 0, 0, -0.133333, -64.529488, 306.599213)"/>
  <path d="M 4891.689 1495.469 C 4808.019 1528.062 4762.739 1614.199 4751.639 1669.297 C 4749.479 1680.039 4744.319 1699.062 4750.719 1706.848 C 4755.309 1712.062 4758.219 1712.457 4760.989 1711.926 C 4764.009 1711.344 4765.089 1707.73 4765.089 1707.73 L 4765.469 1706.461 C 4770.689 1688.148 4776.369 1669.574 4783.549 1652.988 L 4783.969 1652.07 C 4785.809 1648.004 4790.219 1639.734 4794.999 1638.129 C 4797.429 1637.32 4799.829 1637.566 4801.479 1638.738 C 4804.309 1640.801 4804.569 1645.441 4803.369 1651.871 C 4803.249 1652.598 4803.099 1653.301 4802.949 1653.98 C 4798.029 1676.176 4794.569 1694.211 4791.289 1721.879 C 4789.889 1733.777 4788.889 1748.039 4788.589 1760.023 C 4788.589 1760.023 4787.249 1775.738 4802.119 1783.863 C 4808.029 1787.008 4811.519 1786.215 4813.439 1785.375 C 4817.239 1783.691 4818.079 1778.668 4818.459 1775.953 C 4820.119 1761.891 4821.899 1751.43 4824.589 1735.601 L 4826.169 1726.332 C 4828.419 1711.023 4831.199 1695.351 4834.419 1679.766 L 4835.389 1675.859 C 4836.859 1669.98 4839.269 1662.648 4847.509 1662.891 C 4855.009 1663.273 4856.969 1667.808 4856.789 1681.183 L 4856.789 1681.25 L 4856.789 1681.769 L 4856.779 1681.445 C 4856.779 1683.109 4856.729 1684.883 4856.649 1686.832 C 4855.669 1713.433 4855.759 1740.055 4857.009 1766.644 C 4857.659 1779.926 4858.599 1793.191 4859.879 1806.437 C 4860.399 1811.808 4861.879 1817.144 4865.479 1821.367 C 4869.389 1825.648 4874.949 1827.953 4880.659 1828.996 C 4887.769 1830.219 4893.589 1829.57 4897.169 1826.621 C 4900.969 1823.492 4901.789 1819.797 4901.489 1812.566 L 4900.259 1786.601 L 4899.369 1770.805 C 4898.139 1743.918 4898.119 1719.668 4899.309 1696.691 L 4899.899 1681.469 L 4899.979 1680.098 C 4900.349 1673.453 4900.859 1664.359 4909.099 1662.074 C 4918.129 1660.344 4920.259 1666.887 4922.379 1673.394 L 4922.209 1672.926 C 4923.259 1676.051 4923.959 1679.426 4924.659 1682.305 C 4937.159 1743.391 4942.259 1763.723 4946.809 1778.578 C 4950.989 1791.324 4966.299 1795.726 4977.779 1793.297 C 4987.409 1790.93 4994.469 1787.949 4995.679 1779.277 C 4996.469 1773.683 4995.099 1766.277 4993.699 1760.41 C 4984.159 1719.902 4965.789 1641.012 4963.549 1629.988 C 4963.039 1627.441 4962.509 1624.594 4962.059 1621.609 L 4962.079 1621.855 L 4962.039 1621.531 C 4961.459 1617.855 4960.989 1613.957 4960.799 1610.023 C 4959.729 1594.988 4961.819 1579.808 4979.109 1575.871 C 5002.279 1570.582 5031.339 1596.562 5048.709 1612.09 L 5049.889 1613.137 C 5062.279 1623.605 5075.159 1621.293 5081.809 1616.133 C 5084.509 1613.859 5087.539 1611.207 5090.259 1607.519 C 5093.689 1602.816 5094.319 1599.562 5093.499 1595.289 C 5091.509 1586.496 5083.969 1577.262 5077.399 1571.641 C 4996.239 1502.281 4956.189 1470.344 4891.689 1495.469" style="fill:#231f20;fill-opacity:1;fill-rule:nonzero;stroke:none" id="path30" transform="matrix(0.133333, 0, 0, -0.133333, -64.529488, 306.599213)"/>
  <path d="M 5159.659 1507.711 C 5112.059 1477.035 5055.839 1466.359 4992.589 1475.992 C 4991.449 1476.172 4990.649 1477.25 4990.769 1478.379 C 4990.909 1479.516 4991.909 1480.387 4993.049 1480.312 C 5043.039 1477.101 5098.149 1493.113 5148.279 1525.406 C 5198.419 1557.691 5235.789 1601.273 5253.519 1648.086 C 5253.929 1649.176 5255.099 1649.73 5256.209 1649.387 C 5257.309 1649.023 5257.949 1647.844 5257.619 1646.73 C 5240.249 1585.172 5207.299 1538.398 5159.659 1507.711" style="fill:#231f20;fill-opacity:1;fill-rule:nonzero;stroke:none" id="path32" transform="matrix(0.133333, 0, 0, -0.133333, -64.529488, 306.599213)"/>
  <path d="M 5261.349 1682.91 C 5232.899 1645.043 5160.369 1641.207 5096.409 1642.426 C 5069.089 1642.949 5045.489 1643.371 5023.079 1644.641 C 5010.509 1646.051 4999.359 1648.262 4993.699 1655.293 C 4992.849 1656.476 4991.869 1658.164 4991.489 1660.976 C 4991.219 1662.961 4991.079 1665.055 4991.079 1665.48 C 4991.079 1669.914 4991.399 1678.863 4994.809 1684.016 C 4998.599 1689.734 5005.329 1692.793 5017.889 1692.746 C 5023.129 1692.726 5031.859 1692.133 5036.949 1691.801 C 5061.009 1690.226 5088.469 1687.223 5103.889 1697.457 C 5112.619 1703.258 5114.439 1709.394 5114.529 1715.621 C 5114.559 1718.105 5113.979 1722.223 5113.029 1724.594 C 5108.859 1738.125 5091.759 1748.687 5080.639 1755.969 C 5070.909 1762.269 5069.239 1763.082 5059.259 1768.988 C 5027.709 1788.008 5002.909 1798.676 4970.829 1816.851 C 4966.749 1819.195 4960.709 1822.914 4959.249 1828.812 C 4958.089 1833.551 4959.329 1840.914 4963.869 1847.113 C 4969.869 1854.805 4979.569 1860.793 4995.329 1854.922 C 5018.139 1846.406 5061.329 1824.641 5086.159 1810.176 C 5090.499 1807.652 5094.839 1805.512 5099.729 1804.242 C 5102.659 1803.594 5106.619 1803.609 5108.829 1805.766 C 5116.079 1812.816 5108.039 1820.027 5104.559 1822.594 C 5059.289 1855.961 5046.989 1862.25 4989.929 1899.902 C 4984.759 1903.305 4981.999 1907.144 4982.479 1912.34 C 4983.089 1919.125 4991.839 1923.535 4991.839 1923.535 C 5005.289 1930.598 5010.709 1928.238 5025.779 1920.898 C 5039.509 1914.211 5098.269 1877.433 5124.559 1856.621 C 5126.969 1854.719 5129.049 1853.281 5130.879 1852.207 L 5130.299 1852.512 C 5132.429 1851.199 5140.129 1846.641 5144.999 1851.496 C 5148.389 1854.863 5148.239 1860.098 5139.529 1869.711 C 5130.319 1879.875 5076.359 1926 5065.329 1935.562 C 5065.329 1935.562 5060.789 1939.848 5062.519 1943.91 C 5064.249 1947.98 5070.019 1949.316 5070.019 1949.316 C 5079.389 1951.207 5089.079 1950.266 5100.529 1942.836 C 5125.669 1926.527 5166.759 1892.055 5184.429 1875.277 C 5187.579 1872.273 5189.979 1870.562 5191.839 1869.613 C 5195.519 1867.687 5197.939 1868.594 5199.209 1869.25 C 5204.949 1872.621 5203.099 1878.945 5199.489 1883.898 C 5193.519 1892.066 5176.139 1910.445 5164.399 1921.547 C 5158.799 1926.84 5155.079 1931.383 5154.929 1934.137 C 5154.879 1935.348 5155.029 1936.457 5156.239 1937.074 C 5157.209 1937.574 5158.459 1937.691 5159.549 1937.707 L 5160.189 1937.715 C 5162.989 1937.652 5164.319 1937.32 5167.019 1936.68 C 5175.009 1934.789 5188.769 1924.023 5191.309 1922.09 C 5198.519 1916.598 5240.859 1884.531 5265.759 1812.543 C 5280.499 1770.676 5281.859 1710.219 5261.349 1682.91" style="fill:#231f20;fill-opacity:1;fill-rule:nonzero;stroke:none" id="path34" transform="matrix(0.133333, 0, 0, -0.133333, -64.529488, 306.599213)"/>
</svg>